<svg width="30" height="30" viewBox="0 0 30 30" fill="none" xmlns="http://www.w3.org/2000/svg">
<path d="M15 30C23.2843 30 30 23.2843 30 15C30 6.71573 23.2843 0 15 0C6.71573 0 0 6.71573 0 15C0 23.2843 6.71573 30 15 30Z" fill="#FF5C5C"/>
<path fill-rule="evenodd" clip-rule="evenodd" d="M12 8.5C12 8.5 11.5 13.5 15 13C18.5 12.5 16.5 5.5 16.5 5.5C20.423 8.93263 21.8798 11.1364 21.9948 15.7269C21.9982 15.8175 22 15.9085 22 16V16C22 19.866 18.866 23 15 23C11.134 23 8.00001 19.866 8 16V16C8 15.8069 8.00782 15.6156 8.02315 15.4265C8.19241 12.6333 9.1878 10.8435 12 8.5ZM14.9999 21H15L15 21C19 21 19.5 16 18.5 12C18 14.4998 16.661 14.9465 15.0004 15H14.9999C13.3431 15 11.9999 16.3431 11.9999 18C11.9999 19.6568 13.3431 21 14.9999 21Z" fill="white"/>
</svg>
